<svg width="84" height="18" viewBox="0 0 84 18" fill="none" xmlns="http://www.w3.org/2000/svg">
<g clip-path="url(#clip0_211_2)">
<path fill-rule="evenodd" clip-rule="evenodd" d="M22.0797 0.0160152C21.8728 0.0162177 21.6744 0.0982221 21.5278 0.24414C21.3811 0.390058 21.2981 0.588049 21.2969 0.794923V2.61562C21.2969 2.93828 21.5563 3.19961 21.8816 3.19961H39.0715C39.3945 3.19961 39.6563 2.93906 39.6563 2.61562V0.600001C39.6563 0.277344 39.3969 0.0160152 39.0715 0.0160152H22.0797ZM21.8816 4.70351C21.5586 4.70351 21.2969 4.96406 21.2969 5.2875V7.30312C21.2969 7.62578 21.5563 7.88711 21.8816 7.88711H39.0715C39.3945 7.88711 39.6563 7.62656 39.6563 7.30312V5.2875C39.6563 4.96484 39.3969 4.70351 39.0715 4.70351H21.8816ZM21.8816 9.78164C21.5586 9.78164 21.2969 10.0422 21.2969 10.3656V12.3812C21.2969 12.7039 21.5563 12.9652 21.8816 12.9652H39.0715C39.3945 12.9652 39.6563 12.7047 39.6563 12.3812V10.3656C39.6563 10.043 39.3969 9.78164 39.0715 9.78164H21.8816ZM21.8816 14.8598C21.5586 14.8598 21.2969 15.1203 21.2969 15.4437V17.4594C21.2969 17.782 21.5563 18.0434 21.8816 18.0434H39.0715C39.3945 18.0434 39.6563 17.7828 39.6563 17.4594V15.4437C39.6563 15.1211 39.3969 14.8598 39.0715 14.8598H21.8816ZM16.6094 17.7906C16.6094 18.1137 16.8699 18.3754 17.1934 18.3754H19.209C19.5316 18.3754 19.793 18.116 19.793 17.7906V0.600781C19.793 0.277735 19.5324 0.0160152 19.209 0.0160152H17.1934C16.8707 0.0160152 16.6094 0.275391 16.6094 0.600781V17.7906ZM6.0625 17.7906C6.0625 18.1137 6.32305 18.3754 6.64649 18.3754H8.66211C8.98477 18.3754 9.2461 18.116 9.2461 17.7906V0.600781C9.2461 0.277735 8.98555 0.0160152 8.66211 0.0160152H6.64649C6.32383 0.0160152 6.0625 0.275391 6.0625 0.600781V17.7906ZM3.77735 17.7906C3.77735 18.1137 3.5168 18.3754 3.19336 18.3754H1.17774C1.10094 18.3755 1.02487 18.3605 0.953893 18.3312C0.88292 18.3018 0.818445 18.2588 0.764176 18.2044C0.709907 18.1501 0.666913 18.0855 0.637666 18.0145C0.608419 17.9435 0.593496 17.8674 0.593753 17.7906V0.600781C0.593753 0.277735 0.8543 0.0160152 1.17774 0.0160152H3.19336C3.51602 0.0160152 3.77735 0.275391 3.77735 0.600781V17.7906ZM11.1406 17.7906C11.1406 18.1137 11.4012 18.3754 11.7246 18.3754H13.7402C14.0629 18.3754 14.3242 18.116 14.3242 17.7906V0.600781C14.3242 0.277735 14.0637 0.0160152 13.7402 0.0160152H11.7246C11.402 0.0160152 11.1406 0.275391 11.1406 0.600781V17.7906ZM47.3203 0.152343C47.3203 0.548827 47.2402 17.9945 47.2402 17.9945L55.3723 17.9891L55.4906 15.1859L49.9254 15.0234L49.941 0.201171C49.941 0.201171 47.3203 -0.244532 47.3203 0.152343ZM58.693 0.875389C58.1102 0.897264 57.5414 1.31562 57.568 1.74648C57.5941 2.17812 58.2285 2.60195 58.7977 2.57969C59.3668 2.5582 59.8898 2.07734 59.8641 1.65898C59.8387 1.24062 59.2762 0.853123 58.693 0.875389ZM57.6941 6.66289L57.6504 17.8023L60.0309 17.8L60.2242 6.60273L57.6941 6.66289ZM62.0156 6.74414L61.8496 18.0273H64.984L64.8234 10.1895L66.1324 8.54726L67.9973 8.46719L69.4652 9.975L69.5441 17.6711L72.6781 17.6695L72.0805 8.27344L69.7172 6.35078L66.5137 6.15039L64.391 7.49922L64.3879 5.89726L62.0156 6.74414ZM74.2836 -1.76953L74.3406 17.8184L76.8004 17.9375C76.8004 17.9375 77.2727 12.0172 77.0363 12.3344C76.8004 12.652 80.6469 17.6902 80.6469 17.6902L84.3363 17.6105L79.652 11.3289L83.5395 6.2875L80.5274 6.16719L77.2816 10.1691L77.316 -1.71055L74.2836 -1.76953Z" fill="#FF0000"/>
</g>
<defs>
<clipPath id="clip0_211_2">
<rect width="84" height="18" fill="white"/>
</clipPath>
</defs>
</svg>
