<svg width="150" height="150" viewBox="0 0 150 150" fill="none" xmlns="http://www.w3.org/2000/svg">
<path d="M80.0009 107.5C80.3134 106.25 80.3134 104.688 80.3134 103.125C80.3134 101.563 80.3134 100.313 80.0009 98.75L88.7509 92.5C89.6884 91.875 90.0009 90.625 89.3759 89.6875L80.9384 75.3125C80.3134 74.375 79.3759 74.0625 78.4384 74.375L68.7509 79.0625C66.5634 77.1875 64.0634 75.9375 61.2509 74.6875L60.3134 64.0625C60.3134 63.125 59.3759 62.1875 58.4384 62.1875H41.8759C40.9384 62.1875 40.0009 63.125 40.0009 64.0625L38.7509 75C35.9384 75.9375 33.7509 77.5 31.2509 79.375L21.5634 75C20.6259 74.6875 19.3759 75 19.0634 75.9375L10.6259 90.3125C10.0009 91.25 10.3134 92.5 11.2509 93.125L20.0009 99.375C19.6884 100.625 19.6884 102.188 19.6884 103.75C19.6884 105.313 19.6884 106.562 20.0009 108.125L11.2509 114.375C10.3134 115 10.0009 116.25 10.6259 117.188L19.0634 131.562C19.6884 132.5 20.6259 132.813 21.5634 132.5L31.2509 128.125C33.4384 130 35.9384 131.25 38.7509 132.5L39.6884 143.125C39.6884 144.062 40.6259 145 41.5634 145H58.1259C59.0634 145 60.0009 144.062 60.0009 143.125L60.9384 132.5C63.7509 131.563 65.9384 130 68.4384 128.125L78.1259 132.5C79.0634 132.813 80.3134 132.5 80.6259 131.562L89.0634 117.188C89.6884 116.25 89.3759 115 88.4384 114.375L80.0009 107.5ZM50.0009 118.75C41.2509 118.75 34.3759 111.875 34.3759 103.125C34.3759 94.375 41.2509 87.5 50.0009 87.5C58.7509 87.5 65.6259 94.375 65.6259 103.125C65.6259 111.875 58.7509 118.75 50.0009 118.75Z" fill="#FF0000"/>
<path d="M130.938 47.8125C131.251 46.25 131.251 45 131.251 43.75C131.251 42.5 131.251 41.25 130.938 39.6875L138.751 34.0625C139.688 33.4375 139.688 32.5 139.376 31.5625L131.563 18.125C130.938 17.1875 130.001 16.875 129.063 17.5L120.001 21.5625C117.813 20 115.626 18.75 113.126 17.5L112.188 7.8125C112.501 6.875 111.876 6.25 110.938 6.25H95.6259C94.6884 6.25 93.7509 6.875 93.7509 7.8125L92.8134 17.5C90.3134 18.4375 88.1259 19.6875 85.9384 21.5625L76.8759 17.5C75.9384 17.1875 75.0009 17.5 74.3759 18.125L66.5634 31.5625C65.9384 32.5 66.2509 33.4375 67.1884 34.0625L75.0009 39.6875C75.0009 41.25 75.0009 42.5 75.0009 43.75C75.0009 45 75.0009 46.25 75.3134 47.8125L67.5009 53.4375C66.5634 54.0625 66.5634 55 66.8759 55.9375L74.6884 69.375C75.3134 70.3125 76.2509 70.625 77.1884 70L86.2509 65.9375C88.4384 67.5 90.6259 68.75 93.1259 70L94.0634 79.6875C94.0634 80.625 95.0009 81.25 95.9384 81.25H111.251C112.188 81.25 113.126 80.625 113.126 79.6875L114.063 70C116.563 69.0625 118.751 67.8125 120.938 65.9375L130.001 70C130.938 70.3125 131.876 70 132.501 69.375L140.313 55.9375C140.938 55 140.626 54.0625 139.688 53.4375L130.938 47.8125ZM103.126 59.375C94.3759 59.375 87.5009 52.5 87.5009 43.75C87.5009 35 94.3759 28.125 103.126 28.125C111.876 28.125 118.751 35 118.751 43.75C118.751 52.5 111.876 59.375 103.126 59.375Z" fill="#FF8300"/>
</svg>
